<svg version="1.1" xmlns="http://www.w3.org/2000/svg" viewBox="0 0 508.0557271838188 831.0430018305779" width="508.0557271838188" height="831.0430018305779">
  <!-- svg-source:excalidraw -->
  
  <defs>
    <style class="style-fonts">
      @font-face {
        font-family: "Virgil";
        src: url("https://excalidraw.com/Virgil.woff2");
      }
      @font-face {
        font-family: "Cascadia";
        src: url("https://excalidraw.com/Cascadia.woff2");
      }
    </style>
    
  </defs>
  <g stroke-linecap="round" transform="translate(10 41.653916068298884) rotate(0 97.35464477539062 30)"><path d="M-3.09 3.74 C53.21 -4.69, 115.27 -4.23, 194.36 -1 M-0.67 -1.15 C73.84 2.58, 152.15 1.36, 194.5 1.38 M191.2 0.06 C193.57 17.47, 197.74 32.56, 194.62 61.18 M195.94 0.93 C196.81 13.96, 193.9 24.9, 195.28 61.69 M192.39 58.6 C139.36 54.36, 90.64 56.78, 1.88 59.17 M196.68 61.58 C129.79 62.52, 62.42 60.36, 1.99 60.88 M2.12 60.72 C-0.04 43.12, 2.06 32.49, -0.71 1.87 M0.51 61.18 C-0.96 39.91, 1.84 22.75, -1.28 0.3" stroke="#1e1e1e" stroke-width="2" fill="none"></path></g><g transform="translate(26.214736938476562 46.653916068298884) rotate(0 81.13990783691406 25)"><text x="81.13990783691406" y="0" font-family="Virgil, Segoe UI Emoji" font-size="20px" fill="#1e1e1e" text-anchor="middle" style="white-space: pre;" direction="ltr" dominant-baseline="text-before-edge">Some number to </text><text x="81.13990783691406" y="25" font-family="Virgil, Segoe UI Emoji" font-size="20px" fill="#1e1e1e" text-anchor="middle" style="white-space: pre;" direction="ltr" dominant-baseline="text-before-edge">ACC</text></g><g transform="translate(79.00467681884766 10) rotate(0 28.34996795654297 12.5)"><text x="0" y="0" font-family="Virgil, Segoe UI Emoji" font-size="20px" fill="#1e1e1e" text-anchor="start" style="white-space: pre;" direction="ltr" dominant-baseline="text-before-edge">Start</text></g><g stroke-linecap="round"><g transform="translate(106.49217596762776 102.21219024978234) rotate(0 0.8624688077628662 21.670163102978876)"><path d="M1.18 -0.86 C1.45 6.2, 1.46 35.35, 1.16 42.61 M0.34 1.3 C0.6 8.55, 1.17 37.06, 0.83 44.2" stroke="#1e1e1e" stroke-width="1" fill="none"></path></g><g transform="translate(106.49217596762776 102.21219024978234) rotate(0 0.8624688077628662 21.670163102978876)"><path d="M-7.71 26.11 C-4.23 28.27, -2.22 34.24, 1.85 44.3 M-6.27 24.98 C-2.66 31.52, -0.12 40.07, 1.4 44.39" stroke="#1e1e1e" stroke-width="1" fill="none"></path></g><g transform="translate(106.49217596762776 102.21219024978234) rotate(0 0.8624688077628662 21.670163102978876)"><path d="M6.83 26.23 C6.55 28.5, 4.8 34.44, 1.85 44.3 M8.27 25.1 C6.35 31.57, 3.36 40.08, 1.4 44.39" stroke="#1e1e1e" stroke-width="1" fill="none"></path></g></g><mask></mask><g stroke-linecap="round" transform="translate(10 153.06928673097354) rotate(0 97.35464477539062 26.520751953125)"><path d="M-2.95 -0.35 C44.09 0.29, 88.58 -4.89, 193.37 -2.31 M-0.21 -0.21 C40.53 -1.59, 78.7 0.99, 192.95 0.03 M194.9 -0.09 C196.23 11, 196.92 29.48, 197.16 54.91 M192.84 0.57 C196.7 19.52, 194.23 38.34, 193.55 52.34 M194.73 54.92 C143.27 58.06, 94.18 58.65, 3.94 56.2 M192.86 55.03 C120.93 53.72, 44.99 56.76, 1.06 53.4 M2.13 52.33 C2.41 38.22, -2.25 23.04, 1.02 2.35 M0.95 51.76 C0.82 40.25, -0.35 29.47, 0.54 -0.84" stroke="#1e1e1e" stroke-width="2" fill="none"></path></g><g transform="translate(32.57472229003906 167.09003868409854) rotate(0 74.77992248535156 12.5)"><text x="74.77992248535156" y="0" font-family="Virgil, Segoe UI Emoji" font-size="20px" fill="#1e1e1e" text-anchor="middle" style="white-space: pre;" direction="ltr" dominant-baseline="text-before-edge">Add/Subtract 1</text></g><g stroke-linecap="round" transform="translate(10 264.4752134852958) rotate(0 97.35464477539062 26.520751953125)"><path d="M1.89 -2.56 C41.48 -5.25, 80.02 -4.54, 195.79 -1.68 M-1.3 1.73 C50.19 -0.78, 96.43 -1.09, 196.21 0.81 M196.54 -3.63 C195.28 9.2, 197.93 23.68, 195.1 55.95 M194.27 0.04 C194.23 19.85, 196.49 38.18, 194.57 51.75 M191.19 51.31 C146.24 53.31, 94.31 55.34, 1.31 51.83 M192.74 52.13 C129.15 48.72, 61.48 52.11, -0.69 53.76 M2.61 53.45 C3.24 35.39, 3.38 16.64, 1.36 -3.83 M-1.17 54.5 C-0.39 38.58, 1.21 22.98, 0.98 0.66" stroke="#1e1e1e" stroke-width="2" fill="none"></path></g><g transform="translate(46.15471649169922 278.4959654384208) rotate(0 61.199928283691406 12.5)"><text x="61.199928283691406" y="0" font-family="Virgil, Segoe UI Emoji" font-size="20px" fill="#1e1e1e" text-anchor="middle" style="white-space: pre;" direction="ltr" dominant-baseline="text-before-edge">Store result</text></g><g stroke-linecap="round"><g transform="translate(107.35790090866305 214.48504290021276) rotate(0 -0.0032561332724867498 20.80795916104691)"><path d="M0.61 -0.44 C0.62 6.45, 0.31 34.84, 0.22 42.05 M-0.53 -1.72 C-0.67 5.28, -0.59 35.67, -0.61 43.34" stroke="#1e1e1e" stroke-width="1" fill="none"></path></g><g transform="translate(107.35790090866305 214.48504290021276) rotate(0 -0.0032561332724867498 20.80795916104691)"><path d="M-8.62 23.73 C-6.29 29.67, -2.77 37.53, 0.93 42.05 M-8.14 24.07 C-5.36 29.88, -4.25 37.24, -0.81 42.91" stroke="#1e1e1e" stroke-width="1" fill="none"></path></g><g transform="translate(107.35790090866305 214.48504290021276) rotate(0 -0.0032561332724867498 20.80795916104691)"><path d="M5.92 23.73 C3.73 29.75, 2.74 37.6, 0.93 42.05 M6.4 24.07 C4.42 30.03, 0.77 37.38, -0.81 42.91" stroke="#1e1e1e" stroke-width="1" fill="none"></path></g></g><mask></mask><g stroke-linecap="round" transform="translate(10 374.3825195122391) rotate(0 97.35464477539062 26.520751953125)"><path d="M-3.42 -0.47 C74.92 -1.26, 145.87 -0.96, 195.94 -3.04 M0.18 -1.15 C43.86 2.78, 87 3.3, 196.54 -0.8 M194.28 3.96 C196.12 17, 191.4 25.91, 190.93 54.25 M195.78 1.67 C194.7 9.87, 194.75 21.5, 194.54 51.06 M197.88 50.58 C125.98 55.35, 65.74 52.43, 1.95 56.52 M194.39 53.06 C120.42 57.49, 47.6 54.27, -0.51 52.77 M1.94 54.15 C3.48 36.45, 0.39 29.91, 3.92 2.98 M-0.56 52.74 C-2.33 35.81, -0.53 22.11, -1.48 -1.33" stroke="#1e1e1e" stroke-width="2" fill="none"></path></g><g transform="translate(49.77471160888672 388.4032714653641) rotate(0 57.579933166503906 12.5)"><text x="57.579933166503906" y="0" font-family="Virgil, Segoe UI Emoji" font-size="20px" fill="#1e1e1e" text-anchor="middle" style="white-space: pre;" direction="ltr" dominant-baseline="text-before-edge">Print result</text></g><g stroke-linecap="round"><g transform="translate(107.07396029208417 324.3280489184605) rotate(0 0.2806844833065725 21.621569533431938)"><path d="M0.99 0.58 C1.17 7.92, 0.69 36.42, 0.33 43.4 M0.06 -0.16 C0.16 6.9, -0.62 34.42, -0.44 41.74" stroke="#1e1e1e" stroke-width="1" fill="none"></path></g><g transform="translate(107.07396029208417 324.3280489184605) rotate(0 0.2806844833065725 21.621569533431938)"><path d="M-6.65 22.29 C-4.52 24.57, -4.34 32.49, 1.52 43.23 M-7.91 21.58 C-6.01 27.32, -2.91 34.7, -1.18 41.08" stroke="#1e1e1e" stroke-width="1" fill="none"></path></g><g transform="translate(107.07396029208417 324.3280489184605) rotate(0 0.2806844833065725 21.621569533431938)"><path d="M7.89 22.35 C6.52 24.74, 3.21 32.64, 1.52 43.23 M6.63 21.65 C4.09 27.41, 2.74 34.76, -1.18 41.08" stroke="#1e1e1e" stroke-width="1" fill="none"></path></g></g><mask></mask><g stroke-linecap="round"><g transform="translate(107.01749517130702 434.4369238349286) rotate(0 0.33714960408366323 21.36478402486074)"><path d="M-0.72 0.45 C-1 7.74, -0.97 36.07, -0.75 43.09 M1.11 -0.36 C1.14 6.63, 1.73 33.9, 1.57 41.27" stroke="#1e1e1e" stroke-width="1" fill="none"></path></g><g transform="translate(107.01749517130702 434.4369238349286) rotate(0 0.33714960408366323 21.36478402486074)"><path d="M-4.99 20.06 C-2.14 29.88, -0.29 36.75, 2.82 42.67 M-6.38 21.18 C-3.15 26.99, -2.57 31.01, 1.43 40.69" stroke="#1e1e1e" stroke-width="1" fill="none"></path></g><g transform="translate(107.01749517130702 434.4369238349286) rotate(0 0.33714960408366323 21.36478402486074)"><path d="M9.55 20.03 C6.92 29.77, 3.27 36.66, 2.82 42.67 M8.16 21.15 C7.83 27.01, 4.86 31.04, 1.43 40.69" stroke="#1e1e1e" stroke-width="1" fill="none"></path></g></g><mask></mask><g stroke-linecap="round" transform="translate(15.2720947265625 484.1793923010897) rotate(0 92.08255004882812 85)"><path d="M94.96 3.4 C127.04 31.06, 164.94 65.67, 181.94 83.86 M92.37 -1.89 C128.28 31.24, 159.25 62.74, 184.7 87.62 M185.54 89.62 C162.86 107.59, 130.97 133.43, 92.12 169.92 M185.7 86.48 C164.11 104.5, 144.23 126.81, 92.67 168.24 M91.81 170.97 C66.12 144.1, 30.37 110.07, 1.49 84.29 M92.16 168.91 C59.5 138.85, 23.42 108.83, -1.17 84.55 M-1.5 84.33 C28.33 62.33, 52.49 34.61, 91.9 -2.61 M-1.36 86.86 C34.02 50.07, 68.63 20.4, 93.22 -1.95" stroke="#1e1e1e" stroke-width="2" fill="none"></path></g><g transform="translate(77.72340393066406 531.6793923010897) rotate(0 29.5899658203125 37.5)"><text x="29.5899658203125" y="0" font-family="Virgil, Segoe UI Emoji" font-size="20px" fill="#1e1e1e" text-anchor="middle" style="white-space: pre;" direction="ltr" dominant-baseline="text-before-edge">Test </text><text x="29.5899658203125" y="25" font-family="Virgil, Segoe UI Emoji" font-size="20px" fill="#1e1e1e" text-anchor="middle" style="white-space: pre;" direction="ltr" dominant-baseline="text-before-edge">ACC </text><text x="29.5899658203125" y="50" font-family="Virgil, Segoe UI Emoji" font-size="20px" fill="#1e1e1e" text-anchor="middle" style="white-space: pre;" direction="ltr" dominant-baseline="text-before-edge">sign</text></g><g mask="url(#mask-8lhtfHS1E47t2TynTouEY)" stroke-linecap="round"><g transform="translate(200.38636988401413 572.2705172896385) rotate(0 107.74582206650587 -247.33033897122732)"><path d="M1.2 -2.21 C45.9 -65.85, 93.88 -127.96, 210.7 -284.79 M0.45 0.47 C57.34 -83.38, 118.17 -164.52, 211.44 -281.39 M215.05 -281.6 C143.01 -353.04, 80.4 -426.24, 14.63 -495.13 M211.72 -282.65 C170.52 -329.47, 129.38 -373.3, 14.3 -491.74" stroke="#1e1e1e" stroke-width="2" fill="none"></path></g><g transform="translate(200.38636988401413 572.2705172896385) rotate(0 107.74582206650587 -247.33033897122732)"><path d="M43.14 -482.04 C36.12 -482.63, 29.23 -481.89, 12.18 -495.33 M41.96 -477.88 C32.53 -484.16, 23.88 -487, 13.32 -490.05" stroke="#1e1e1e" stroke-width="2" fill="none"></path></g><g transform="translate(200.38636988401413 572.2705172896385) rotate(0 107.74582206650587 -247.33033897122732)"><path d="M28.38 -467.77 C24.47 -471.69, 20.96 -474.2, 12.18 -495.33 M27.21 -463.62 C21.77 -474.07, 17.38 -481.04, 13.32 -490.05" stroke="#1e1e1e" stroke-width="2" fill="none"></path></g></g><mask id="mask-8lhtfHS1E47t2TynTouEY"><rect x="0" y="0" fill="#fff" width="512.4558278918266" height="1165.3907331824303"></rect><rect x="326.85592859983444" y="264.7888278365135" fill="#000" width="171.19979858398438" height="50" opacity="1"></rect></mask><g transform="translate(326.85592859983444 264.7888278365135) rotate(0 -18.723736649314446 60.15135048189768)"><text x="85.59989929199219" y="0" font-family="Virgil, Segoe UI Emoji" font-size="20px" fill="#1e1e1e" text-anchor="middle" style="white-space: pre;" direction="ltr" dominant-baseline="text-before-edge">If sign does not </text><text x="85.59989929199219" y="25" font-family="Virgil, Segoe UI Emoji" font-size="20px" fill="#1e1e1e" text-anchor="middle" style="white-space: pre;" direction="ltr" dominant-baseline="text-before-edge">change</text></g><g mask="url(#mask-ThjWFjeaJRRCoKdylImcR)" stroke-linecap="round"><g transform="translate(107.35464477539062 660.7625811659561) rotate(0 0.2573376108207981 50.32786394675264)"><path d="M-0.64 0.73 C-0.51 17.27, 0.07 82.63, 0.16 99.11 M1.22 0.07 C1.26 16.82, -0.34 84.35, -0.71 100.59" stroke="#1e1e1e" stroke-width="1" fill="none"></path></g><g transform="translate(107.35464477539062 660.7625811659561) rotate(0 0.2573376108207981 50.32786394675264)"><path d="M-9.1 72.43 C-8.18 79.04, -4.96 84.98, -1.58 99.42 M-9.5 72.25 C-7.41 83.76, -3.59 94.28, -1.36 100.62" stroke="#1e1e1e" stroke-width="1" fill="none"></path></g><g transform="translate(107.35464477539062 660.7625811659561) rotate(0 0.2573376108207981 50.32786394675264)"><path d="M11.41 72.9 C7.25 79.28, 5.4 85.1, -1.58 99.42 M11.01 72.71 C5.35 84.03, 1.41 94.38, -1.36 100.62" stroke="#1e1e1e" stroke-width="1" fill="none"></path></g></g><mask id="mask-ThjWFjeaJRRCoKdylImcR"><rect x="0" y="0" fill="#fff" width="207.35464477539062" height="859.9981232474574"></rect><rect x="10.834754943847656" y="697.8803522067067" fill="#000" width="193.03977966308594" height="25" opacity="1"></rect></mask><g transform="translate(10.834754943847656 697.8803522067067) rotate(0 96.77722744236377 13.21009290600199)"><text x="96.51988983154297" y="0" font-family="Virgil, Segoe UI Emoji" font-size="20px" fill="#1e1e1e" text-anchor="middle" style="white-space: pre;" direction="ltr" dominant-baseline="text-before-edge">If sign does change</text></g><g stroke-linecap="round" transform="translate(10 768.0014979243279) rotate(0 97.35464477539062 26.520751953125)"><path d="M-1.68 -2.08 C75.98 3.59, 148.56 0.16, 196.25 -1.54 M-0.29 0.57 C43.5 -1.92, 87.11 -0.6, 195.28 0.39 M195.49 -2.58 C197.04 16.2, 191.48 38.62, 190.79 52.54 M194.72 -1.56 C193.53 10.86, 195 21.17, 192.9 51.32 M191.83 51.75 C125.14 55.83, 56.85 54.9, -1.64 52 M196.05 54.75 C129.98 51.83, 63.68 49.37, 0.18 54.81 M-3.1 56.2 C2.66 34.81, 2.84 16.9, 3.86 -2.38 M-1.12 51.69 C1.41 38.58, -0.01 24.39, -1.51 1.22" stroke="#1e1e1e" stroke-width="2" fill="none"></path></g><g transform="translate(86.89466857910156 782.0222498774529) rotate(0 20.459976196289062 12.5)"><text x="20.459976196289062" y="0" font-family="Virgil, Segoe UI Emoji" font-size="20px" fill="#1e1e1e" text-anchor="middle" style="white-space: pre;" direction="ltr" dominant-baseline="text-before-edge">Halt</text></g></svg>